# xmcd CD database file
#
# Track frame offsets:
#	150
#	13742
#	31434
#	48065
#	64526
#	80688
#	100649
#	117919
#	130960
#	148060
#	165121
#	182204
#	185714
#
# Disc length: 3000 seconds
#
# Revision: 2
# Processed by: cddbd v1.5.1PL2 Copyright (c) Steve Scherf et al.
# Submitted via: CDex 1.51
#
DISCID=a90bb60d
DTITLE=Marlango - Marlango
DYEAR=2004
DGENRE=Blues
TTITLE0=Madness
TTITLE1=Green on blue
TTITLE2=Gran sol
TTITLE3=Nico
TTITLE4=I suggest
TTITLE5=Enjoy the ride
TTITLE6=It's all right
TTITLE7=No use
TTITLE8=Once upon a time
TTITLE9=My love
TTITLE10=Maybe
TTITLE11=Frozen angora
TTITLE12=Every
EXTD=YEAR: 2004
EXTT0=
EXTT1=
EXTT2=
EXTT3=
EXTT4=
EXTT5=
EXTT6=
EXTT7=
EXTT8=
EXTT9=
EXTT10=
EXTT11=
EXTT12=
PLAYORDER=
